<svg id="keyline-templates" xmlns="http://www.w3.org/2000/svg" viewBox="0 0 48 48" aria-labelledby="titleId" role="img"><title id="titleId">Video Chat</title><desc>A shape combining the forms of a video camera and a chat bubble</desc><g id="video-chat"><g id="icon"><path id="camera-curve-handle" d="M15,34a9.81,9.81,0,0,1-2.44,2A15,15,0,0,1,8,37.6a8.14,8.14,0,0,0,2.52-3.3A8.48,8.48,0,0,0,11,31"/><path id="camera-lens" d="M32.5,21.79l6.43-7.55a0.62,0.62,0,0,1,1.08.44l0,18.69a0.61,0.61,0,0,1-1.07.41L32.64,26"/><path id="camera-base" d="M34,14H12a1,1,0,0,0-1,1V33a1,1,0,0,0,1,1H34a1,1,0,0,0,1-1V15A1,1,0,0,0,34,14Z"/></g></g></svg>
